<svg height="32" viewBox="0 0 242 32" width="242" xmlns="http://www.w3.org/2000/svg"><path d="m13.116 1.268v.576l-1.764.324c-.3360017.04800024-.5519995.16799904-.648.36s-.144.51599772-.144.972v13.68c0 2.1120106-.1319987 4.0199915-.396 5.724-.26400132 1.7040085-.8159958 3.2039935-1.656 4.5-.81600408 1.2480062-1.69199532 2.1659971-2.628 2.754s-2.1239928.882-3.564.882c-.28800144 0-.58799844-.0479995-.9-.144s-.58199886-.2339991-.81-.414-.38999952-.4019987-.486-.666-.0840006-.5519984.036-.864c.19200096-.5520028.56399724-.828 1.116-.828.57600288 0 1.19999664.299997 1.872.9.2400012.2160011.5099985.3539997.81.414s.59399856.0540004.882-.018.56999862-.1919992.846-.36.52199892-.3599989.738-.576c.3600018-.3840019.6359996-.7439983.828-1.08.19200096-.3360017.32399964-.8159969.396-1.44l.04355569-.4506673c.03911117-.4853328.06488877-1.0746629.07733319-1.767998l.01629458-1.7990623c.00454437-.8679741.00681654-1.892728.00681654-3.0742724v-15.48l-.00575997-.29088035c-.00575997-.13247975-.01583996-.24551918-.03024003-.33911965-.02400012-.15600078-.08399952-.28199952-.18-.378s-.24599898-.16199982-.45-.198l-.23400003-.03800003c-.17599957-.02666661-.39199869-.05599981-.64799997-.08799997l-2.124-.216v-.576l.19559225.01959192c.62263945.05273488 1.82720195.08187752 3.61371117.0874285h1.31625033c2.01840115-.00620403 3.30987195-.04187724 3.87444625-.10702042zm15.876 13.536h-10.044c-.0720004.4800024-.108.9599976-.108 1.44 0 .9360047.1319987 1.7939961.396 2.574s.6419975 1.4459972 1.134 1.998 1.0919965.9839984 1.8 1.296 1.4939957.468 2.358.468c.8400042 0 1.6079965-.1679983 2.304-.504s1.4519959-.8879962 2.268-1.656l.144.864c-1.7040085 2.0880104-3.8759868 3.132-6.516 3.132-.8640043 0-1.6739962-.1919981-2.43-.576s-1.4099972-.9059967-1.962-1.566-.9839984-1.4399955-1.296-2.34-.468-1.8779947-.468-2.934.1739983-2.0399954.522-2.952.8339969-1.7099966 1.458-2.394 1.3559958-1.2179981 2.196-1.602c.8400042-.38400192 1.763995-.576 2.772-.576 1.5600078 0 2.837995.48599514 3.834 1.458.996005.9720049 1.5419995 2.261992 1.638 3.87zm-9.864-.756h5.472c.7680038 0 1.3379981-.0539995 1.71-.162s.462001-.4859968.27-1.134c-.192001-.6240031-.5219977-1.1879975-.99-1.692s-1.1699953-.756-2.106-.756c-1.1520058 0-2.1059962.3359966-2.862 1.008s-1.2539988 1.5839942-1.494 2.736zm12.564 9.936v-.576l1.8-.324c.4800024-.1200006.7859993-.2999988.918-.54s.198-.6719969.198-1.296v-6.912c0-.4800024-.101999-.8279989-.306-1.044-.1813342-.192001-.5570345-.3555552-1.1271102-.4906665l-1.1948898-.2653335.072-.54c.9360047-.3360017 1.7159969-.7259978 2.34-1.17s1.1759976-1.16999496 1.656-2.178h.648c.0480002.64800324.0839999 1.34999622.108 2.106l.0230401.9331204c.0086399.4795189.0129599.978477.0129599 1.4968796.4560023-.8640043 1.1159957-1.691996 1.98-2.484.8160041-.81600408 1.5479968-1.224 2.196-1.224.600003 0 1.0619984.16799832 1.386.504.3240016.3360017.486.7439976.486 1.224 0 .4560023-.1319987.8039988-.396 1.044s-.5879981.36-.972.36c-.3200016 0-.6608323-.066666-1.0224994-.1999997l-.2195006-.0880003c-.4440022-.192001-.8219984-.288-1.134-.288-.2640013 0-.5339986.1259987-.81.378s-.5219989.5579982-.738.918-.3959993.7259981-.54 1.098-.216.6779988-.216.918v5.976c0 .6240031.101999 1.037999.306 1.242s.6419966.3539995 1.314.45l2.772.396v.576c-.5184026-.0384002-1.0828785-.06912-1.6934388-.09216l-.4665612-.01584c-.6336032-.0192001-1.3055983-.03072-2.0159986-.03456l-1.0080014-.00144c-.8400042 0-1.6199964.0119999-2.34.036s-1.3919969.0599998-2.016.108zm26.712-9.18h-10.044c-.0720004.4800024-.108.9599976-.108 1.44 0 .9360047.1319987 1.7939961.396 2.574s.6419975 1.4459972 1.134 1.998 1.0919965.9839984 1.8 1.296 1.4939957.468 2.358.468c.8400042 0 1.6079965-.1679983 2.304-.504s1.4519959-.8879962 2.268-1.656l.144.864c-1.7040085 2.0880104-3.8759868 3.132-6.516 3.132-.8640043 0-1.6739962-.1919981-2.43-.576s-1.4099972-.9059967-1.962-1.566-.9839984-1.4399955-1.296-2.34-.468-1.8779947-.468-2.934.1739983-2.0399954.522-2.952.8339969-1.7099966 1.458-2.394 1.3559958-1.2179981 2.196-1.602c.8400042-.38400192 1.763995-.576 2.772-.576 1.5600078 0 2.837995.48599514 3.834 1.458.996005.9720049 1.5419995 2.261992 1.638 3.87zm-9.864-.756h5.472c.7680038 0 1.3379981-.0539995 1.71-.162s.462001-.4859968.27-1.134c-.192001-.6240031-.5219977-1.1879975-.99-1.692s-1.1699953-.756-2.106-.756c-1.1520058 0-2.1059962.3359966-2.862 1.008s-1.2539988 1.5839942-1.494 2.736zm31.896 9.324 1.044-.216c.5760029-.1200006.9839988-.2699991 1.224-.45s.36-.5339974.36-1.062v-6.444c0-1.4400072-.2759972-2.4779968-.828-3.114s-1.4399939-.954-2.664-.954c-1.5840079 0-2.9639941.696-4.14 2.088v8.136c0 .5040025.0479995.8819987.144 1.134s.3599978.4259995.792.522l1.836.396v.576c-1.2240061-.0960005-2.5199932-.144-3.888-.144s-2.7119934.0479995-4.032.144v-.576l1.044-.252c.6720034-.1680008 1.1579985-.353999 1.458-.558s.45-.5579975.45-1.062v-6.408c0-1.2240061-.2879971-2.1899965-.864-2.898s-1.367995-1.062-2.376-1.062c-.408002 0-.8699974.0839992-1.386.252s-1.0019977.3899986-1.458.666-.8399984.5819983-1.152.918-.468.6839982-.468 1.044v7.344c0 .5760029.0779992.9719989.234 1.188s.4019983.3599996.738.432l1.836.396v.576c-2.400012-.1680008-4.8599874-.1680008-7.38 0v-.576l1.044-.216c.5280026-.1200006.8819991-.2879989 1.062-.504s.27-.5759975.27-1.08v-7.776c0-.600003-.1139989-1.0079989-.342-1.224s-.7619958-.3959993-1.602-.54v-.576c1.2480062-.3120016 2.3999947-1.1999927 3.456-2.664h.684v3.456c1.0560053-.9600048 1.9979959-1.6679977 2.826-2.124.8280041-.45600228 1.745995-.684 2.754-.684.5040025 0 .953998.03599964 1.35.108s.7559984.20399904 1.08.396c.3240016.192001.6299986.4619983.918.81s.5759986.7859974.864 1.314c.8160041-.8400042 1.6499957-1.4879977 2.502-1.944.8520043-.45600228 1.9019938-.684 3.15-.684 1.2960065 0 2.3339961.42599574 3.114 1.278.7800039.8520043 1.17 2.0699921 1.17 3.654v7.272c0 .8880044.1919981 1.3679996.576 1.44l1.62.288v.576c-1.2240061-.0960005-2.4599938-.144-3.708-.144s-2.3519952.0359996-3.312.108zm15.3 4.14c-.4320022 1.1520058-.9419971 2.0099972-1.53 2.574s-1.2179966.846-1.89.846c-.4560023 0-.8039988-.1439986-1.044-.432s-.36-.5999983-.36-.936c0-.2880014.095999-.5399989.288-.756s.491998-.324.9-.324c.2880014 0 .5399989.0239998.756.072l.4159998.0959999c.0666666.016.1319999.032.1960002.0480001.192001.0480002.3419995.072.45.072s.2219994-.0599994.342-.18c.0720004-.0720004.1379997-.1259998.198-.162s.1259996-.1079995.198-.216l.09504-.1555202c.0518399-.09072.1101597-.2008798.17496-.3304798.0900004-.1800009.1924996-.4349988.3074998-.7649993l.2252115-.650903c.20886-.6247943.3132887-1.0648237.3132887-1.3200977 0-.408002-.1199988-.8879972-.36-1.44l-4.392-11.628c-.192001-.5520028-.5039978-.8879994-.936-1.008l-1.332-.396v-.576c1.5120076.1200006 2.8439942.18 3.996.18s2.231995-.0599994 3.24-.18v.576c-.1320007.0240001-.2745002.0465001-.4274998.0675l-.4905002.0585c-.3480017.0360002-.6659986.0959996-.954.18s-.5159992.2099992-.684.378c-.1470007.1470007-.1837506.349124-.1102502.6063746l3.6742502 10.3736254 3.348-9.288c.120001-.3360017.174-.701998.162-1.098s-.221998-.6539994-.63-.774l-2.016-.504v-.576c1.0800054.1200006 2.0699955.18 2.97.18.900004 0 1.949994-.0599994 3.15-.18v.576l-1.152.324c-.336002.0960005-.623999.2939985-.864.594-.218183.2727286-.476032.7983436-.773553 1.5768585zm39.816-8.64c-.120001.7440037-.275999 1.4999962-.468 2.268s-.407999 1.5599959-.648 2.376c-1.488007.600003-3.719985.9-6.696.9-1.872009 0-3.569992-.2699973-5.094-.81s-2.813995-1.307995-3.87-2.304-1.871997-2.189993-2.448-3.582-.864-2.9399915-.864-4.644c0-1.5840079.299997-3.10199274.9-4.554.6-1.45200726 1.421995-2.73599442 2.466-3.852s2.273993-2.00999664 3.69-2.682 2.939992-1.008 4.572-1.008l.849308.00440813c.678367.0073469 1.283261.02387746 1.814692.04959187.744004.03600018 1.397997.10799946 1.962.216s1.085998.25799904 1.566.45.971997.44399844 1.476.756c.072.57600288.126 1.15799706.162 1.746s.042 1.19399688.018 1.818h-.684c-.480002-1.39200696-1.289994-2.45399634-2.43-3.186s-2.513992-1.098-4.122-1.098c-1.272006 0-2.441995.27599724-3.51.828s-1.985996 1.32599502-2.754 2.322-1.373998 2.19599298-1.818 3.6-.666 2.9459916-.666 4.626c0 3.4560173.737993 6.0719911 2.214 7.848s3.665985 2.664 6.57 2.664c3.336017 0 5.783992-1.5839842 7.344-4.752zm8.892 5.364c-.984005 0-1.847996-.1739983-2.592-.522s-1.361998-.821997-1.854-1.422-.857999-1.3079959-1.098-2.124-.36-1.6919953-.36-2.628c0-1.2720064.215998-2.3939951.648-3.366s.995997-1.7819968 1.692-2.43 1.487996-1.1399983 2.376-1.476c.888004-.33600168 1.787995-.504 2.7-.504.432002 0 .851998.04799952 1.26.144.408002.0960005.767998.2039994 1.08.324.336002.0960005.671998.239999 1.008.432l1.98-1.008.324.108.0045 2.808.0135 2.808c.012 1.8720094.018 3.7439906.018 5.616 0 .9360047.407996 1.3920001 1.224 1.368.192001 0 .353999-.0299997.486-.09s.257999-.1259996.378-.198l.0765-.072.0855-.072c.06-.0480002.114-.0959998.162-.144l.36.18c-.192001.4560023-.407999.8399984-.648 1.152-.216001.2880014-.491998.5459989-.828.774s-.743998.342-1.224.342c-.768004 0-1.319998-.2519975-1.656-.756s-.504-1.2119954-.504-2.124v-1.044c-.168001.5040025-.389999.9899977-.666 1.458s-.617998.8879981-1.026 1.26-.893997.6659989-1.458.882-1.217996.324-1.962.324zm5.148-7.92c0-1.7280086-.305997-3.0779951-.918-4.05s-1.685992-1.458-3.222-1.458c-.528003 0-1.079997.1079989-1.656.324s-1.103998.5579977-1.584 1.026-.875998 1.0739963-1.188 1.818-.468 1.6319948-.468 2.664c0 .8160041.107999 1.5899963.324 2.322s.521998 1.3799972.918 1.944.887997 1.0079984 1.476 1.332 1.253996.486 1.998.486c.600003 0 1.163997-.1499985 1.692-.45s.983998-.7199973 1.368-1.26.689999-1.1759963.918-1.908.342-1.5299957.342-2.394zm14.652 7.056v.576l-.72-.02592c-.2496-.00768-.508799-.0144-.777599-.02016l-.410401-.00792c-.696003-.0120001-1.391997-.018-2.088-.018l-1.044.0045-1.044.0135c-.696003.0120001-1.331997.0299999-1.908.054v-.576l2.232-.432c.312002-.0720004.527999-.1679994.648-.288.12-.1200006.18-.3599982.18-.72v-18.288c0-.50400252-.143999-.8759988-.432-1.116s-.923995-.50399856-1.908-.792v-.468c.960005-.16800084 2.195992-.56399688 3.708-1.188h.828v21.78c0 .4560023.048.7499993.144.882s.323998.2339996.684.306zm13.752-19.152c0-.4800024-.03-.86399856-.09-1.152s-.191999-.52799904-.396-.72-.491998-.3479994-.864-.468-.857997-.25199928-1.458-.396v-.576c.768004-.04800024 1.499997-.14399928 2.196-.288s1.355997-.32399892 1.98-.54h.9v21.312c0 .4320022.024.7679988.072 1.008s.155999.4139995.324.522.413998.1739999.738.198l.5715.036c.218999.012.466499.0239999.7425.036v.576l-1.062721.2188802c-.515519.1036798-1.007277.1987194-1.475279.2851198-.780004.1440007-1.505997.2519996-2.178.324v-1.656c-.624003.2640013-1.187997.4859991-1.692.666s-.983998.3299994-1.44.45-.899998.2099997-1.332.27-.899997.09-1.404.09c-1.560008 0-2.915994-.6839932-4.068-2.052s-1.728-2.9639909-1.728-4.788c0-1.1040055.185998-2.1419951.558-3.114s.881997-1.8299963 1.53-2.574 1.397996-1.3319978 2.25-1.764c.852004-.43200216 1.745995-.648 2.682-.648 1.872009 0 3.419994.32399676 4.644.972zm0 17.82v-6.804c0-.5040025-.03-1.0499971-.09-1.638s-.227999-1.1219976-.504-1.602-.707997-.8819984-1.296-1.206-1.409995-.486-2.466-.486c-.672003 0-1.295997.1679983-1.872.504s-1.079998.803997-1.512 1.404-.767999 1.295996-1.008 2.088-.36 1.6559953-.36 2.592.131999 1.7879962.396 2.556.635998 1.4219973 1.116 1.962 1.037997.9539986 1.674 1.242 1.337996.432 2.106.432c.744004 0 1.475996-.101999 2.196-.306s1.259998-.4499986 1.62-.738zm5.148-11.448v-.576l.225563.0253126c.590625.0551252 1.63143.0826874 3.122437.0826874l1.274883-.0076799c1.07008-.01408 1.869114-.0475198 2.397117-.1003201v.576l-.462502.0845002c-.721668.1416668-1.197497.287499-1.427498.4374998-.276001.1800009-.294001.5459972-.054 1.098l4.68 9.792 2.88-5.832-1.404-3.708c-.264001-.6720034-.485999-1.0979991-.666-1.278-.144001-.1440007-.29184-.2380802-.44352-.28224l-1.62648-.31176v-.576l.264084.0239171c.727474.0560555 1.959437.0840829 3.695916.0840829l1.26262-.0059792c1.24908-.0129549 2.112201-.0469617 2.58938-.1020208v.576l-1.764.324c-.360002.0720004-.623999.1679994-.792.288s-.27.2459993-.306.378-.03.2759992.018.432.108.3059993.18.45l3.528 9.252 3.672-8.604c.144001-.2160011.222-.4559987.234-.72s-.035999-.5039989-.144-.72-.257999-.4019992-.45-.558-.419999-.2459999-.684-.27l-1.476-.252v-.576l.2368.0268801c.481067.0457601 1.220262.07216 2.217598.0791999l.569602.00192c1.488007 0 2.579997-.0359996 3.276-.108v.576l-.9.18c-.720004.2160011-1.331997.8879944-1.836 2.016l-5.184 11.88h-.576l-3.06-7.416-3.78 7.416h-.72l-6.372-12.888c-.312002-.6480032-.767997-1.0079996-1.368-1.08zm38.304 4.212h-10.044c-.072.4800024-.108.9599976-.108 1.44 0 .9360047.131999 1.7939961.396 2.574s.641998 1.4459972 1.134 1.998 1.091996.9839984 1.8 1.296 1.493996.468 2.358.468c.840004 0 1.607997-.1679983 2.304-.504s1.451996-.8879962 2.268-1.656l.144.864c-1.704009 2.0880104-3.875987 3.132-6.516 3.132-.864004 0-1.673996-.1919981-2.43-.576s-1.409997-.9059967-1.962-1.566-.983998-1.4399955-1.296-2.34-.468-1.8779947-.468-2.934.173998-2.0399954.522-2.952.833997-1.7099966 1.458-2.394 1.355996-1.2179981 2.196-1.602c.840004-.38400192 1.763995-.576 2.772-.576 1.560008 0 2.837995.48599514 3.834 1.458.996005.9720049 1.542 2.261992 1.638 3.87zm-9.864-.756h5.472c.768004 0 1.337998-.0539995 1.71-.162s.462001-.4859968.27-1.134c-.192001-.6240031-.521998-1.1879975-.99-1.692s-1.169995-.756-2.106-.756c-1.152006 0-2.105996.3359966-2.862 1.008s-1.253999 1.5839942-1.494 2.736zm20.412 9.324v.576l-.72-.02592c-.2496-.00768-.508799-.0144-.777599-.02016l-.410401-.00792c-.696003-.0120001-1.391997-.018-2.088-.018l-1.044.0045-1.044.0135c-.696003.0120001-1.331997.0299999-1.908.054v-.576l2.232-.432c.312002-.0720004.527999-.1679994.648-.288.12-.1200006.18-.3599982.18-.72v-18.288c0-.50400252-.143999-.8759988-.432-1.116s-.923995-.50399856-1.908-.792v-.468c.960005-.16800084 2.195992-.56399688 3.708-1.188h.828v21.78c0 .4560023.048.7499993.144.882s.323998.2339996.684.306zm9.756 0v.576l-.72-.02592c-.2496-.00768-.508799-.0144-.777599-.02016l-.410401-.00792c-.696003-.0120001-1.391997-.018-2.088-.018l-1.044.0045-1.044.0135c-.696003.0120001-1.331997.0299999-1.908.054v-.576l2.232-.432c.312002-.0720004.527999-.1679994.648-.288.12-.1200006.18-.3599982.18-.72v-18.288c0-.50400252-.143999-.8759988-.432-1.116s-.923995-.50399856-1.908-.792v-.468c.960005-.16800084 2.195992-.56399688 3.708-1.188h.828v21.78c0 .4560023.048.7499993.144.882s.323998.2339996.684.306z" fill="#1d1e1f"/></svg>