<?xml version="1.0" standalone="no"?>
<!DOCTYPE svg PUBLIC "-//W3C//DTD SVG 20010904//EN"
 "http://www.w3.org/TR/2001/REC-SVG-20010904/DTD/svg10.dtd">
<svg version="1.0" xmlns="http://www.w3.org/2000/svg"
 width="260.000000pt" height="260.000000pt" viewBox="0 0 260.000000 260.000000"
 preserveAspectRatio="xMidYMid meet">
<metadata>
Created by potrace 1.11, written by Peter Selinger 2001-2013
</metadata>
<g transform="translate(0.000000,260.000000) scale(0.100000,-0.100000)"
fill="#000000" stroke="none">
<path d="M6 2592 c-11 -18 7 -51 30 -56 26 -7 30 -26 12 -59 -7 -12 -11 -32
-9 -44 1 -14 -5 -23 -18 -28 -12 -3 -21 -12 -21 -20 0 -16 86 -25 100 -11 6 6
10 7 10 3 0 -11 73 28 92 50 17 19 15 68 -3 57 -5 -3 -9 0 -9 6 0 7 -13 24
-30 40 l-29 27 24 13 c14 7 25 17 25 22 0 11 -167 11 -174 0z"/>
<path d="M1190 2514 c-19 -7 -60 -13 -91 -13 -72 -1 -111 -15 -137 -50 -11
-16 -50 -49 -85 -74 -73 -52 -120 -97 -139 -131 -7 -13 -23 -41 -35 -63 -12
-22 -29 -46 -38 -53 -28 -23 -63 -104 -76 -173 -11 -57 -16 -67 -41 -79 l-30
-14 35 -39 c20 -22 38 -54 42 -71 6 -34 17 -182 17 -226 -1 -16 4 -28 9 -28 6
0 5 -8 -1 -20 -7 -14 -17 -19 -29 -15 -16 5 -18 0 -13 -47 7 -78 16 -88 35
-39 9 23 18 41 19 41 2 0 4 -18 5 -39 2 -24 -3 -44 -12 -51 -8 -7 -15 -22 -15
-33 0 -27 22 -87 32 -87 4 0 8 -6 8 -14 0 -7 7 -19 15 -26 13 -11 15 6 16 141
0 187 6 268 24 334 12 43 25 131 30 201 1 11 4 24 6 30 3 5 6 25 8 44 4 57 39
161 72 211 44 68 91 97 190 115 46 8 93 20 104 27 21 12 258 22 285 11 8 -3
35 -7 60 -9 183 -13 237 -36 308 -133 32 -44 70 -145 78 -204 2 -18 9 -58 16
-88 6 -30 12 -59 13 -65 2 -26 19 -83 36 -123 16 -38 62 -271 72 -372 4 -31 5
-33 12 -12 4 14 13 21 21 18 19 -7 18 34 -1 70 -16 31 -19 62 -9 88 10 25 22
19 34 -19 19 -56 25 -48 28 39 l2 81 -25 -28 c-24 -27 -45 -29 -45 -5 0 6 6
19 14 27 18 21 23 125 8 176 -7 22 -16 90 -21 150 -10 132 -31 185 -106 262
-40 41 -59 53 -93 59 -37 6 -42 10 -42 33 0 38 -47 107 -117 172 -79 73 -161
106 -291 119 -116 11 -117 11 -162 -6z"/>
<path d="M685 2270 c-8 -13 3 -30 21 -30 18 0 18 14 0 29 -10 8 -16 9 -21 1z"/>
<path d="M250 2180 c0 -5 9 -10 20 -10 11 0 20 5 20 10 0 6 -9 10 -20 10 -11
0 -20 -4 -20 -10z"/>
<path d="M107 2134 c-4 -4 -7 -15 -7 -24 0 -9 -10 -27 -22 -40 -30 -31 -34
-64 -7 -49 11 5 19 14 19 19 0 5 12 20 26 33 14 14 24 32 22 42 -3 20 -20 30
-31 19z"/>
<path d="M0 1855 c0 -117 3 -145 14 -145 20 0 25 22 19 83 -5 51 -4 55 25 75
27 20 30 26 24 65 -6 46 -24 66 -59 67 -23 0 -23 -1 -23 -145z"/>
<path d="M2318 1963 c-13 -33 -17 -73 -7 -73 4 0 10 6 13 13 4 6 4 -9 1 -35
-4 -43 -3 -48 16 -48 11 0 28 -7 37 -16 14 -15 17 -15 29 2 20 27 16 34 -17
28 -33 -7 -35 -3 -20 27 9 16 7 19 -8 19 -22 0 -36 46 -26 86 8 33 -4 30 -18
-3z"/>
<path d="M262 1940 c-14 -6 -22 -17 -20 -27 2 -10 -10 -25 -29 -37 -57 -37
-55 -119 4 -149 15 -8 57 -20 93 -26 36 -7 77 -14 92 -18 15 -3 39 -2 53 1 21
5 25 11 19 28 -3 11 -8 47 -9 79 -4 68 -33 115 -77 124 -16 4 -41 13 -56 21
-31 16 -38 16 -70 4z"/>
<path d="M2166 1766 c-14 -19 -26 -48 -26 -64 0 -27 2 -29 42 -28 37 1 43 -2
48 -24 3 -14 14 -26 24 -28 14 -3 17 0 11 19 -6 17 -2 27 16 40 19 15 22 22
13 35 -6 10 -19 22 -30 28 -10 6 -21 13 -24 16 -42 42 -46 42 -74 6z"/>
<path d="M2504 1744 c-17 -24 -55 -40 -86 -35 -9 1 -28 -5 -42 -14 -14 -9 -27
-16 -30 -16 -25 4 -33 -2 -32 -21 2 -30 -13 -78 -25 -78 -5 0 -9 -7 -9 -15 0
-9 9 -15 24 -15 41 0 123 -101 140 -173 4 -16 17 -33 31 -39 29 -13 32 -26 9
-43 -14 -10 -15 -15 -3 -36 18 -34 19 -42 5 -102 -14 -61 -4 -97 26 -97 23 0
68 43 68 65 0 24 -25 78 -43 94 -26 21 -20 35 23 53 l40 17 0 242 c0 177 -3
240 -11 232 -7 -7 -21 -8 -40 -3 -25 7 -32 5 -45 -16z"/>
<path d="M1433 1603 c-13 -2 -23 -8 -23 -13 0 -5 -7 -7 -15 -4 -12 5 -14 -3
-10 -40 4 -56 13 -86 26 -86 5 0 9 -9 9 -20 0 -13 7 -20 20 -20 11 0 20 -4 20
-10 0 -5 9 -10 20 -10 12 0 20 -7 20 -16 0 -10 -6 -14 -15 -10 -8 3 -15 1 -15
-4 0 -16 105 -60 157 -67 61 -7 174 5 153 17 -8 4 -42 10 -75 13 -79 8 -122
24 -128 48 -5 17 0 19 46 18 29 -1 41 -4 27 -6 -14 -3 -29 -9 -35 -15 -9 -9
19 -8 149 7 16 2 39 -3 53 -12 40 -26 50 -2 14 37 -16 18 -27 38 -24 45 8 24
-30 34 -154 42 -52 3 -83 10 -83 17 0 6 17 22 37 35 41 27 32 41 -25 37 -18
-1 -35 1 -38 6 -3 4 0 8 7 8 7 0 10 2 7 5 -3 3 -18 0 -32 -7 -21 -9 -32 -9
-47 0 -10 7 -20 11 -21 11 -2 -1 -13 -4 -25 -6z m260 -142 c10 -10 1 -8 -78
13 -11 3 0 4 24 1 24 -2 48 -8 54 -14z"/>
<path d="M1200 1586 c-5 -5 -21 -9 -37 -10 -15 -1 -34 -5 -40 -9 -7 -5 -17 -6
-22 -3 -4 3 -28 -4 -52 -15 l-43 -21 27 -15 c42 -22 32 -31 -40 -37 -38 -3
-90 -11 -118 -16 -27 -6 -61 -11 -74 -10 -17 0 -22 -4 -17 -16 3 -9 6 -20 6
-25 0 -4 7 -6 15 -3 8 4 12 10 9 15 -3 5 3 9 12 9 14 0 15 -3 6 -12 -7 -7 -12
-20 -12 -30 0 -10 -5 -18 -11 -18 -6 0 -9 -7 -5 -15 4 -10 -1 -15 -17 -16 -18
-1 -16 -2 8 -10 32 -9 65 -4 65 12 0 5 18 7 43 3 23 -3 48 -6 55 -7 7 0 11 -5
9 -11 -2 -6 -25 -12 -51 -12 -48 -2 -79 -14 -35 -14 19 0 21 -2 9 -10 -11 -7
-3 -10 30 -11 25 0 53 -2 63 -4 50 -9 187 49 223 94 6 8 16 11 21 8 17 -11 34
44 34 109 -1 79 -3 94 -13 94 -5 0 -7 4 -4 8 7 11 -32 10 -44 -2z m-140 -136
c-8 -5 -26 -10 -40 -10 -20 0 -22 2 -10 10 8 5 26 10 40 10 20 0 22 -2 10 -10z
m115 -77 c-11 -3 -23 -10 -27 -17 -6 -8 -8 -8 -8 1 0 14 -36 5 -51 -13 -6 -8
-21 -14 -32 -14 -21 0 -21 0 -1 16 10 8 14 13 7 10 -6 -4 -14 -2 -17 3 -4 5 4
12 16 14 32 6 137 6 113 0z"/>
<path d="M1815 1589 c-11 -4 -14 -8 -8 -8 7 -1 15 -12 19 -26 9 -34 24 -31 24
4 0 35 -8 41 -35 30z"/>
<path d="M800 1571 c0 -13 29 -35 37 -28 3 4 -2 9 -11 13 -9 3 -13 10 -10 15
3 5 0 9 -5 9 -6 0 -11 -4 -11 -9z"/>
<path d="M466 1253 c-13 -13 -5 -33 13 -33 11 0 23 -4 26 -10 11 -18 33 -11
28 9 -5 20 -56 45 -67 34z"/>
<path d="M1530 1163 c0 -6 5 -15 11 -18 7 -5 4 -14 -7 -26 -16 -18 -16 -19 2
-19 14 0 12 -4 -10 -15 -32 -17 -69 -19 -94 -6 -9 4 -46 5 -81 2 -44 -5 -71
-3 -89 6 -21 11 -29 11 -48 -2 -13 -8 -32 -15 -43 -15 -20 0 -37 32 -26 49 3
5 1 12 -5 16 -5 3 -10 -3 -10 -15 0 -12 -4 -19 -9 -15 -6 3 -18 -3 -28 -13
-10 -10 -38 -34 -63 -53 -24 -18 -52 -41 -62 -49 -34 -30 -44 -35 -78 -38 -19
-2 -41 -11 -47 -19 -7 -9 -15 -14 -19 -11 -9 10 -44 -30 -44 -50 0 -11 -9 -27
-20 -37 -11 -10 -20 -13 -20 -7 0 7 -4 12 -9 12 -12 0 14 -141 39 -211 25 -72
25 -79 -6 -142 l-25 -52 28 33 29 33 1 -40 c1 -22 -2 -43 -7 -46 -6 -4 -3 -16
6 -30 9 -13 13 -29 9 -35 -3 -5 -1 -10 4 -10 6 0 11 -5 11 -11 0 -5 -5 -7 -12
-3 -6 4 -8 3 -4 -4 3 -6 1 -22 -5 -36 -10 -20 -15 -23 -30 -15 -17 9 -19 6
-19 -32 0 -23 -3 -39 -6 -36 -4 4 -6 42 -5 84 1 72 0 77 -14 58 -9 -11 -18
-30 -22 -42 -3 -13 -10 -23 -15 -23 -11 0 -6 37 8 75 6 15 1 12 -19 -9 -15
-16 -27 -35 -27 -42 0 -7 -9 -15 -19 -19 -18 -5 -49 -91 -37 -102 10 -10 -90
-53 -124 -53 -19 -1 -68 -7 -107 -13 -71 -13 -72 -13 -53 5 19 18 27 38 14 38
-3 0 -38 -17 -77 -39 -40 -21 -96 -44 -125 -50 -74 -15 -122 -37 -122 -55 0
-14 130 -16 1283 -15 l1282 0 -65 24 c-36 14 -72 25 -81 25 -9 0 -19 6 -22 14
-5 13 -117 79 -123 73 -2 -2 22 -20 53 -40 31 -20 50 -37 44 -37 -24 0 -130
55 -131 68 0 7 -11 18 -25 24 -14 6 -25 17 -25 24 0 8 -18 23 -40 34 -48 24
-68 27 -50 5 7 -8 20 -15 30 -15 18 0 50 -30 50 -47 0 -6 7 -13 15 -17 8 -3
15 -10 15 -15 0 -6 -15 -5 -37 3 -28 10 -38 19 -37 34 0 12 -3 19 -8 16 -4 -3
-8 -14 -8 -25 0 -27 -32 -21 -40 6 -3 11 -14 21 -25 23 -24 4 -45 29 -45 53 0
10 -15 30 -34 45 -33 27 -33 27 -22 72 10 37 9 54 -3 90 -12 36 -12 45 -1 52
11 7 8 16 -14 44 -21 28 -25 40 -17 55 19 34 40 105 42 141 4 50 -2 127 -8
113 -2 -7 -9 -13 -14 -13 -4 0 -6 7 -3 15 4 8 1 15 -5 15 -6 0 -10 3 -10 8 1
4 1 15 0 26 -1 16 -3 17 -18 5 -15 -12 -16 -12 -10 5 6 14 4 17 -8 12 -8 -3
-15 -1 -15 4 0 6 -6 10 -13 10 -8 0 -25 10 -38 21 -13 12 -41 32 -61 45 -21
13 -38 28 -38 32 0 4 -13 13 -29 20 -16 7 -49 31 -74 52 -25 22 -48 40 -52 40
-4 0 -14 8 -21 18 -7 9 -14 12 -14 5z m20 -96 c0 -7 16 -28 35 -47 40 -39 47
-71 13 -65 -12 3 -27 0 -35 -6 -10 -9 -14 -7 -20 7 -4 11 -13 24 -21 30 -8 6
-12 16 -8 22 4 7 1 12 -9 12 -14 0 -13 5 7 29 25 32 38 38 38 18z m-403 -124
c-8 -7 -37 9 -31 19 3 5 12 4 20 -3 8 -6 13 -14 11 -16z m430 -18 c0 -8 -4
-12 -9 -9 -5 3 -6 10 -3 15 9 13 12 11 12 -6z m-161 -14 c-9 -14 16 -19 41
-10 14 5 25 4 29 -3 5 -8 10 -5 15 8 7 18 8 17 8 -3 1 -17 9 -24 36 -29 53
-10 37 -29 -21 -26 -27 1 -79 -2 -116 -8 -36 -5 -80 -7 -97 -4 l-31 7 27 25
c19 17 39 26 60 25 18 0 34 5 37 13 3 8 8 14 11 14 4 0 4 -4 1 -9z m529 -101
c3 -5 1 -10 -4 -10 -6 0 -11 5 -11 10 0 6 2 10 4 10 3 0 8 -4 11 -10z m-518
-28 c10 8 17 8 25 0 8 -8 16 -7 30 1 16 10 22 9 33 -7 8 -11 21 -16 30 -13 20
8 19 1 -4 -22 -11 -11 -23 -16 -27 -13 -3 4 -5 0 -2 -8 9 -27 50 -14 166 51
42 24 43 24 57 5 17 -23 55 -29 55 -9 0 10 4 11 19 1 23 -14 27 -81 5 -98 -7
-7 -12 -16 -9 -20 3 -5 1 -11 -5 -15 -12 -8 -13 -25 -1 -25 5 0 11 10 15 23 3
13 25 38 48 57 24 19 38 28 32 20 -15 -21 -24 -60 -13 -60 5 0 7 -10 5 -22 -3
-13 -5 -26 -5 -30 -1 -4 -9 -14 -18 -23 -9 -10 -17 -27 -18 -39 -2 -11 -8 -20
-14 -18 -6 1 -11 -9 -11 -23 0 -14 -6 -28 -14 -31 -8 -3 -19 -19 -25 -35 -10
-29 -55 -59 -68 -45 -4 4 0 21 10 38 15 26 15 29 2 24 -14 -5 -15 2 -10 47 3
28 8 60 11 71 4 13 2 17 -7 14 -8 -3 -14 -10 -14 -17 0 -6 -6 -16 -14 -20 -7
-5 -11 -13 -7 -19 3 -6 3 -13 -2 -16 -4 -2 -9 -22 -10 -42 -2 -21 -6 -41 -10
-44 -15 -11 -34 -59 -28 -69 4 -7 -1 -11 -13 -11 -12 0 -21 -4 -21 -9 0 -5
-14 -14 -31 -20 -17 -6 -28 -15 -24 -21 3 -5 1 -10 -4 -10 -6 0 -11 6 -12 13
0 9 -2 9 -6 -1 -2 -6 -9 -10 -14 -6 -5 3 -12 -2 -15 -11 -5 -12 -9 -13 -14 -5
-5 8 -12 7 -24 -5 -11 -11 -16 -12 -16 -4 0 7 -6 4 -15 -7 -8 -11 -14 -14 -15
-6 0 10 -5 10 -20 2 -11 -6 -20 -7 -20 -3 0 4 -25 6 -55 5 -30 -2 -55 0 -55 5
0 6 -6 10 -12 10 -42 0 -158 76 -158 103 0 5 -3 10 -7 10 -5 0 -9 12 -10 26 0
15 -5 29 -10 33 -9 7 -13 22 -16 63 -1 15 -5 28 -8 28 -4 0 -10 16 -13 35 -4
19 -11 35 -16 35 -6 0 -10 11 -10 25 0 14 -3 25 -7 25 -5 0 -8 20 -9 45 -1 64
8 63 119 -15 20 -14 38 -32 40 -41 3 -10 27 -19 76 -28 40 -7 75 -11 78 -8 3
3 -11 9 -31 12 -20 4 -36 11 -36 16 0 5 -8 9 -18 9 -10 0 -26 6 -36 13 -16 11
-16 15 -3 25 11 9 13 24 10 52 l-6 40 47 -4 c25 -3 46 -1 46 5 0 5 14 9 30 9
17 0 30 -4 30 -10 0 -5 15 -3 33 5 19 8 36 10 41 5 6 -6 15 -5 23 2z m-508
-31 c26 -20 51 -80 51 -124 0 -20 4 -26 13 -21 9 5 9 4 0 -6 -8 -9 -9 -19 -1
-36 6 -13 8 -27 4 -32 -15 -14 -67 66 -104 159 -10 25 -5 79 7 79 3 0 17 -9
30 -19z m1011 5 c0 -2 -8 -10 -17 -17 -16 -13 -17 -12 -4 4 13 16 21 21 21 13z
m-20 -86 c0 -5 -4 -10 -10 -10 -5 0 -10 5 -10 10 0 6 5 10 10 10 6 0 10 -4 10
-10z m0 -373 c-1 -7 -8 0 -16 16 -8 15 -19 27 -24 27 -6 0 -10 6 -10 13 0 6
12 -1 25 -16 14 -15 25 -33 25 -40z m-54 -34 c-2 -16 -4 -31 -5 -34 -1 -7 -31
-8 -31 -1 0 3 8 11 18 18 12 10 13 13 3 14 -11 0 -11 3 -1 15 17 21 19 19 16
-12z m-1186 -69 c10 -30 10 -38 -1 -45 -15 -10 -31 -8 -30 4 1 4 1 25 1 48 0
47 14 44 30 -7z"/>
<path d="M1455 721 c-3 -5 -13 -10 -23 -11 -9 0 -46 -3 -82 -5 -35 -3 -78 -1
-94 5 -21 7 -33 7 -43 -2 -11 -9 -11 -13 -1 -19 18 -12 124 -11 194 2 61 11
83 22 66 33 -6 3 -13 2 -17 -3z"/>
<path d="M1707 610 c-3 -11 -2 -20 3 -20 12 0 21 28 11 35 -5 2 -11 -4 -14
-15z"/>
<path d="M1216 574 c10 -8 14 -13 8 -10 -7 3 -26 -8 -44 -24 l-32 -30 -28 20
-29 21 2 -21 c1 -12 8 -20 19 -20 10 0 18 -4 18 -8 0 -10 129 -7 160 3 16 5
20 2 20 -14 0 -12 2 -21 3 -21 13 0 67 33 67 41 0 6 6 7 16 1 24 -13 65 11 80
48 13 29 12 30 -7 19 -11 -6 -41 -10 -67 -9 -129 3 -162 6 -162 13 0 4 -10 7
-22 7 -21 0 -21 0 -2 -16z m48 -50 c3 -8 2 -12 -4 -9 -6 3 -10 10 -10 16 0 14
7 11 14 -7z"/>
<path d="M1766 495 c4 -8 8 -15 10 -15 2 0 4 7 4 15 0 8 -4 15 -10 15 -5 0 -7
-7 -4 -15z"/>
<path d="M1995 1140 c3 -5 8 -10 11 -10 2 0 4 5 4 10 0 6 -5 10 -11 10 -5 0
-7 -4 -4 -10z"/>
<path d="M670 1085 c0 -8 5 -15 10 -15 6 0 10 7 10 15 0 8 -4 15 -10 15 -5 0
-10 -7 -10 -15z"/>
<path d="M33 1043 c-30 -15 -33 -20 -33 -65 0 -26 4 -48 9 -48 6 0 22 -11 36
-24 23 -22 25 -28 16 -64 -5 -23 -6 -43 -3 -47 11 -11 37 -4 58 16 19 17 26
19 44 9 35 -19 78 -21 84 -4 4 10 -2 14 -21 14 -21 0 -23 3 -14 14 8 10 9 16
1 21 -6 3 -8 10 -5 15 6 10 -15 8 -34 -4 -11 -7 -13 -5 -8 7 4 11 -5 22 -31
37 -31 19 -34 24 -21 33 13 10 30 38 33 57 1 3 5 11 9 18 5 6 5 17 2 22 -9 15
-86 11 -122 -7z"/>
<path d="M2000 1010 c0 -5 4 -10 9 -10 6 0 13 5 16 10 3 6 -1 10 -9 10 -9 0
-16 -4 -16 -10z"/>
<path d="M644 981 c22 -24 59 -29 50 -6 -4 8 -10 12 -15 9 -5 -2 -19 0 -31 7
-23 12 -23 12 -4 -10z"/>
<path d="M481 831 c-7 -5 -33 -7 -57 -4 -84 7 -140 -50 -75 -77 35 -14 113 -4
152 19 21 13 25 20 18 38 -10 26 -21 34 -38 24z"/>
<path d="M2504 696 c-16 -13 -33 -39 -39 -57 -14 -42 -46 -49 -86 -20 -25 19
-79 29 -79 16 0 -3 7 -16 16 -30 12 -19 13 -28 4 -45 -6 -12 -10 -24 -7 -26 3
-3 45 -7 93 -10 75 -5 97 -10 142 -36 l52 -29 0 118 c0 79 -4 123 -12 131 -19
19 -54 14 -84 -12z"/>
<path d="M483 216 c-27 -24 -27 -25 -5 -23 28 2 75 47 49 47 -9 0 -29 -11 -44
-24z"/>
<path d="M183 137 c-44 -17 -53 -28 -13 -17 19 5 38 14 44 20 12 12 10 12 -31
-3z"/>
</g>
</svg>
